<svg id="Camada_1" data-name="Camada 1" xmlns="http://www.w3.org/2000/svg" viewBox="0 0 144 144"><defs><style>.cls-1{fill:#101727;}.cls-2{fill:#8558f4;}.cls-3{fill:#f2f2f2;}</style></defs><title>icon txrangel 16x16</title><circle class="cls-1" cx="72" cy="72" r="72"/><path class="cls-2" d="M24.93,87.44,4,74.92a2.94,2.94,0,0,1-1.53-2.6A3.1,3.1,0,0,1,4,69.77L24.93,57.2a3,3,0,0,1,2.94,0,2.54,2.54,0,0,1,1.42,2.41,2.76,2.76,0,0,1-1.42,2.54L8.79,73.45V71L27.87,82.45A2.82,2.82,0,0,1,29.29,85a2.69,2.69,0,0,1-.71,1.89,3.09,3.09,0,0,1-1.73,1A2.56,2.56,0,0,1,24.93,87.44Z" transform="translate(0 0)"/><path class="cls-3" d="M35.12,67.05a2.73,2.73,0,0,1-1.92-.68,2.19,2.19,0,0,1-.74-1.7,2.32,2.32,0,0,1,.74-1.81,2.73,2.73,0,0,1,1.92-.68H48.2a2.76,2.76,0,0,1,1.93.68,2.34,2.34,0,0,1,.73,1.81,2.21,2.21,0,0,1-.73,1.7,2.76,2.76,0,0,1-1.93.68ZM47.69,92a9.3,9.3,0,0,1-5.1-1.44A10.14,10.14,0,0,1,39,86.64a11.89,11.89,0,0,1-1.3-5.6V54a2.72,2.72,0,0,1,2.83-2.84,2.73,2.73,0,0,1,2,.8,2.77,2.77,0,0,1,.8,2V81a5.8,5.8,0,0,0,1.24,3.79,3.81,3.81,0,0,0,3.06,1.53h1.93a2.24,2.24,0,0,1,1.72.79,2.92,2.92,0,0,1,.71,2,2.56,2.56,0,0,1-.93,2,3.61,3.61,0,0,1-2.41.79Z" transform="translate(0 0)"/><path class="cls-3" d="M80.87,92a3.2,3.2,0,0,1-1.07-.17,2.13,2.13,0,0,1-1-.73L68.93,79.23l-2-2L57,65.52a3.33,3.33,0,0,1-.79-1.95,2.45,2.45,0,0,1,.57-1.79,2.31,2.31,0,0,1,1.87-.73,2.65,2.65,0,0,1,2.15,1l9.68,11.55L72,74.92,82.63,87.66a3,3,0,0,1,.82,2,2.29,2.29,0,0,1-.74,1.67A2.51,2.51,0,0,1,80.87,92ZM59.24,92a2.3,2.3,0,0,1-1.78-.7,2.45,2.45,0,0,1-.65-1.73,3.31,3.31,0,0,1,.79-2l9.63-12.06,3,4.3-9,11.33A2.7,2.7,0,0,1,59.24,92Zm14-14.55-3.91-3.34L78.44,62a2.29,2.29,0,0,1,1-.76,3,3,0,0,1,1.13-.2,2.26,2.26,0,0,1,1.87.76,2.69,2.69,0,0,1,.6,1.84,3.61,3.61,0,0,1-.82,2.1Z" transform="translate(0 0)"/><path class="cls-2" d="M92.69,96.75a2.7,2.7,0,0,1-2.49-1.11,2.9,2.9,0,0,1-.39-2.78l14-43.73a2.63,2.63,0,0,1,1-1.31,2.91,2.91,0,0,1,1.55-.57,2.8,2.8,0,0,1,2.43,1,2.88,2.88,0,0,1,.45,2.84l-14,43.72a2.3,2.3,0,0,1-1,1.38A3.39,3.39,0,0,1,92.69,96.75Z" transform="translate(0 0)"/><path class="cls-2" d="M119.07,87.43a2.57,2.57,0,0,1-1.92.37,3.09,3.09,0,0,1-1.73-1,2.7,2.7,0,0,1-.71-1.9,2.8,2.8,0,0,1,1.42-2.49L135.21,71v2.43L116.13,62.12a2.78,2.78,0,0,1-1.42-2.55,2.55,2.55,0,0,1,1.42-2.41,3,3,0,0,1,2.94,0L140,69.76a3.1,3.1,0,0,1,1.53,2.55A3,3,0,0,1,140,74.92Z" transform="translate(0 0)"/></svg>