<svg id="Camada_1" data-name="Camada 1" xmlns="http://www.w3.org/2000/svg" viewBox="0 0 200 34.49"><defs><style>.cls-1{fill:#8558f4;}.cls-2{fill:#f2f2f2;}</style></defs><title>logo branco tx</title><path class="cls-1" d="M13.67,57.12.93,49.5A1.8,1.8,0,0,1,0,47.91a1.87,1.87,0,0,1,.93-1.55l12.74-7.67a1.79,1.79,0,0,1,1.79,0,1.55,1.55,0,0,1,.87,1.46,1.71,1.71,0,0,1-.87,1.56L3.83,48.6V47.11l11.63,7a1.71,1.71,0,0,1,.87,1.52,1.62,1.62,0,0,1-.44,1.15,1.85,1.85,0,0,1-1.05.59A1.58,1.58,0,0,1,13.67,57.12Z" transform="translate(0 -32.76)"/><path class="cls-1" d="M19.85,44.73a1.6,1.6,0,0,1-1.16-.42,1.31,1.31,0,0,1-.45-1,1.42,1.42,0,0,1,.45-1.1,1.64,1.64,0,0,1,1.16-.41h7.91a1.64,1.64,0,0,1,1.16.41,1.42,1.42,0,0,1,.45,1.1,1.31,1.31,0,0,1-.45,1,1.6,1.6,0,0,1-1.16.42Zm7.6,15.09A5.62,5.62,0,0,1,24.37,59a6.21,6.21,0,0,1-2.16-2.38,7.27,7.27,0,0,1-.78-3.39V36.85a1.71,1.71,0,1,1,3.42,0V53.18a3.51,3.51,0,0,0,.75,2.29,2.3,2.3,0,0,0,1.85.93h1.16a1.35,1.35,0,0,1,1.05.48,1.81,1.81,0,0,1,.43,1.23,1.54,1.54,0,0,1-.57,1.23,2.17,2.17,0,0,1-1.45.48Z" transform="translate(0 -32.76)"/><path class="cls-1" d="M47.51,59.82a2,2,0,0,1-.65-.1,1.26,1.26,0,0,1-.58-.45l-6-7.19-1.24-1.23L33.1,43.8a2,2,0,0,1-.48-1.18A1.51,1.51,0,0,1,33,41.54a1.42,1.42,0,0,1,1.13-.44,1.58,1.58,0,0,1,1.3.58l5.85,7,.89.82,6.44,7.7a1.88,1.88,0,0,1,.5,1.22,1.42,1.42,0,0,1-.45,1A1.55,1.55,0,0,1,47.51,59.82Zm-13.08,0a1.4,1.4,0,0,1-1.08-.43,1.48,1.48,0,0,1-.39-1,2,2,0,0,1,.48-1.23l5.82-7.29,1.85,2.6-5.45,6.84A1.61,1.61,0,0,1,34.43,59.82ZM42.89,51l-2.36-2L46,41.68a1.36,1.36,0,0,1,.58-.46,1.83,1.83,0,0,1,.68-.12,1.37,1.37,0,0,1,1.13.46,1.65,1.65,0,0,1,.36,1.11,2.2,2.2,0,0,1-.49,1.27Z" transform="translate(0 -32.76)"/><path class="cls-2" d="M65.17,59.82a1.75,1.75,0,0,1-1.27-.43,1.71,1.71,0,0,1-.44-1.28V42.81a1.72,1.72,0,1,1,3.42,0v15.3a1.75,1.75,0,0,1-.43,1.27A1.71,1.71,0,0,1,65.17,59.82Zm0-11.71a6.79,6.79,0,0,1,1-3.68,7.41,7.41,0,0,1,2.72-2.58,7.54,7.54,0,0,1,3.76-1,5.62,5.62,0,0,1,3.07.67,1.41,1.41,0,0,1,.77,1.59,1.3,1.3,0,0,1-.4.74,1.28,1.28,0,0,1-.66.32,2,2,0,0,1-.83,0,9.53,9.53,0,0,0-3.93-.07,5.33,5.33,0,0,0-2.76,1.4,3.57,3.57,0,0,0-1,2.6Z" transform="translate(0 -32.76)"/><path class="cls-2" d="M86.53,60a8.24,8.24,0,0,1-4.48-1.25,8.85,8.85,0,0,1-3.14-3.39,10.14,10.14,0,0,1-1.14-4.84A9.41,9.41,0,0,1,79,45.62a9.17,9.17,0,0,1,3.39-3.41,9.43,9.43,0,0,1,13,3.41,9.51,9.51,0,0,1,1.25,4.86H95.29a10.14,10.14,0,0,1-1.14,4.84A8.85,8.85,0,0,1,91,58.71,8.24,8.24,0,0,1,86.53,60Zm.68-3.08A5.83,5.83,0,0,0,90.33,56a6.05,6.05,0,0,0,2.16-2.3,6.74,6.74,0,0,0,.78-3.26,6.89,6.89,0,0,0-.78-3.31,6,6,0,0,0-2.16-2.29,6.16,6.16,0,0,0-6.21,0,6,6,0,0,0-2.19,2.29,6.68,6.68,0,0,0-.81,3.31,6.54,6.54,0,0,0,.81,3.26A6,6,0,0,0,84.12,56,5.83,5.83,0,0,0,87.21,56.88Zm7.67,3a1.68,1.68,0,0,1-1.74-1.74V52.87l.65-3.63,2.84,1.24v7.63a1.69,1.69,0,0,1-1.75,1.74Z" transform="translate(0 -32.76)"/><path class="cls-2" d="M103.58,59.85a1.68,1.68,0,0,1-1.25-.49,1.7,1.7,0,0,1-.5-1.25V42.84a1.68,1.68,0,0,1,.5-1.26,1.74,1.74,0,0,1,3,1.26V58.11a1.73,1.73,0,0,1-.48,1.25A1.67,1.67,0,0,1,103.58,59.85Zm14.06,0a1.68,1.68,0,0,1-1.74-1.74V49.69a6.24,6.24,0,0,0-.72-3.18,4.5,4.5,0,0,0-1.93-1.84,6.22,6.22,0,0,0-2.79-.6,5.76,5.76,0,0,0-2.61.59A4.75,4.75,0,0,0,106,46.21a3.8,3.8,0,0,0-.69,2.25h-2.16a7.15,7.15,0,0,1,1-3.85,7.49,7.49,0,0,1,2.86-2.69,8.34,8.34,0,0,1,4.07-1,8.67,8.67,0,0,1,4.23,1,7.29,7.29,0,0,1,2.94,3,9.75,9.75,0,0,1,1.08,4.79v8.42a1.7,1.7,0,0,1-.5,1.25A1.68,1.68,0,0,1,117.64,59.85Z" transform="translate(0 -32.76)"/><path class="cls-2" d="M157.08,60A10.28,10.28,0,0,1,152,58.74a8.92,8.92,0,0,1-3.46-3.35,9.61,9.61,0,0,1-1.25-4.91,10,10,0,0,1,1.18-4.95,8.66,8.66,0,0,1,3.27-3.36A9.44,9.44,0,0,1,156.56,41a8.57,8.57,0,0,1,4.59,1.18,7.75,7.75,0,0,1,2.93,3.25,10.84,10.84,0,0,1,1,4.78,1.44,1.44,0,0,1-.45,1.08,1.58,1.58,0,0,1-1.13.42H149.72V48.94h13.69l-1.4,1a7.48,7.48,0,0,0-.69-3.06,5,5,0,0,0-4.76-2.93,6.2,6.2,0,0,0-3.33.86,5.49,5.49,0,0,0-2.11,2.34,7.69,7.69,0,0,0-.72,3.38,6.55,6.55,0,0,0,.86,3.35,6.21,6.21,0,0,0,2.36,2.33,6.88,6.88,0,0,0,3.46.85,7.3,7.3,0,0,0,4-1.3,1.92,1.92,0,0,1,1.11-.39,1.49,1.49,0,0,1,1,.36,1.61,1.61,0,0,1,.62,1.13,1.22,1.22,0,0,1-.55,1.06,9.38,9.38,0,0,1-2.89,1.51A10.54,10.54,0,0,1,157.08,60Z" transform="translate(0 -32.76)"/><path class="cls-2" d="M170.5,62.68A1.62,1.62,0,0,1,169,62a1.73,1.73,0,0,1-.24-1.68l8.48-26.43a1.62,1.62,0,0,1,.59-.8,1.92,1.92,0,0,1,.94-.34,1.67,1.67,0,0,1,1.47.64,1.71,1.71,0,0,1,.27,1.71L172,61.54a1.38,1.38,0,0,1-.61.83A2,2,0,0,1,170.5,62.68Z" transform="translate(0 -32.76)"/><path class="cls-1" d="M186.44,57.05a1.54,1.54,0,0,1-1.16.22,1.84,1.84,0,0,1-1-.58,1.61,1.61,0,0,1-.43-1.15,1.67,1.67,0,0,1,.86-1.5l11.53-6.92v1.47l-11.53-6.84a1.68,1.68,0,0,1-.86-1.54,1.54,1.54,0,0,1,.86-1.46,1.78,1.78,0,0,1,1.77,0l12.64,7.6a1.88,1.88,0,0,1,.92,1.54,1.78,1.78,0,0,1-.92,1.57Z" transform="translate(0 -32.76)"/><path class="cls-2" d="M141.2,61.29a1.66,1.66,0,0,0-1.28-.27,1.76,1.76,0,0,0-1.08.68,4.4,4.4,0,0,1-.35.39,5.28,5.28,0,0,1-1.5,1.29,6,6,0,0,1-3,.79l-.31,0-.32,0a6,6,0,0,1-3-.79,5.28,5.28,0,0,1-1.5-1.29,4.4,4.4,0,0,1-.35-.39,1.73,1.73,0,0,0-1.08-.68,1.66,1.66,0,0,0-1.28.27,1.53,1.53,0,0,0-.67,1,1.38,1.38,0,0,0,.11.82c.15.23.3.46.47.68l.09.1.08.09a9.53,9.53,0,0,0,3.17,2.31,10.23,10.23,0,0,0,8.61,0,9.34,9.34,0,0,0,3.29-2.45c.18-.22.35-.46.51-.7a1.33,1.33,0,0,0,.12-.85A1.53,1.53,0,0,0,141.2,61.29Z" transform="translate(0 -32.76)"/><path class="cls-2" d="M132.6,60a8.25,8.25,0,0,1-4.48-1.24A9,9,0,0,1,125,55.34a10,10,0,0,1-1.15-4.85,9.56,9.56,0,0,1,1.25-4.86,9.14,9.14,0,0,1,3.39-3.4,9.44,9.44,0,0,1,13,3.4,9.56,9.56,0,0,1,1.25,4.86h-1.33a10.16,10.16,0,0,1-1.15,4.85,9,9,0,0,1-3.13,3.39A8.29,8.29,0,0,1,132.6,60Zm.69-3.08a5.9,5.9,0,0,0,3.11-.83,6,6,0,0,0,2.16-2.3,7.22,7.22,0,0,0,0-6.57,6,6,0,0,0-2.16-2.29,6.16,6.16,0,0,0-6.21,0A6.1,6.1,0,0,0,128,47.19a7.07,7.07,0,0,0,0,6.57,6.13,6.13,0,0,0,2.19,2.3A6,6,0,0,0,133.29,56.89Zm7.67,3a1.69,1.69,0,0,1-1.75-1.74V52.89l.65-3.63,2.84,1.23v7.64A1.69,1.69,0,0,1,141,59.87Z" transform="translate(0 -32.76)"/></svg>