<svg id="Camada_1" data-name="Camada 1" xmlns="http://www.w3.org/2000/svg" viewBox="0 0 200 34.51"><defs><style>.cls-1{fill:#8558f4;}.cls-2{fill:#101727;}</style></defs><title>logo tx preto</title><path class="cls-1" d="M13.56,57.05.92,49.48A1.79,1.79,0,0,1,0,47.91a1.86,1.86,0,0,1,.92-1.54l12.64-7.61a1.84,1.84,0,0,1,1.79,0,1.55,1.55,0,0,1,.85,1.46,1.67,1.67,0,0,1-.85,1.54L3.8,48.59V47.12L15.35,54a1.7,1.7,0,0,1,.85,1.51,1.6,1.6,0,0,1-.43,1.14,1.85,1.85,0,0,1-1,.59A1.58,1.58,0,0,1,13.56,57.05Z" transform="translate(0 -32.75)"/><path class="cls-1" d="M19.73,44.72a1.69,1.69,0,0,1-1.17-.41,1.36,1.36,0,0,1-.44-1,1.43,1.43,0,0,1,.44-1.09,1.64,1.64,0,0,1,1.17-.41h7.91a1.64,1.64,0,0,1,1.17.41,1.43,1.43,0,0,1,.44,1.09,1.36,1.36,0,0,1-.44,1,1.69,1.69,0,0,1-1.17.41Zm7.6,15.11A5.54,5.54,0,0,1,24.25,59a6.14,6.14,0,0,1-2.16-2.38,7.24,7.24,0,0,1-.79-3.39V36.84a1.67,1.67,0,0,1,.48-1.23A1.69,1.69,0,0,1,23,35.13a1.64,1.64,0,0,1,1.71,1.71V53.18a3.53,3.53,0,0,0,.75,2.3,2.33,2.33,0,0,0,1.85.92H28.5a1.33,1.33,0,0,1,1,.48A1.76,1.76,0,0,1,30,58.11a1.56,1.56,0,0,1-.56,1.24,2.19,2.19,0,0,1-1.46.48Z" transform="translate(0 -32.75)"/><path class="cls-1" d="M47.41,59.83a2.08,2.08,0,0,1-.66-.11,1.22,1.22,0,0,1-.58-.44l-6-7.19-1.24-1.24L33,43.8a2,2,0,0,1-.47-1.19,1.43,1.43,0,0,1,.34-1.07A1.39,1.39,0,0,1,34,41.09a1.58,1.58,0,0,1,1.3.58l5.86,7,.89.82,6.44,7.71A1.84,1.84,0,0,1,49,58.41a1.42,1.42,0,0,1-.44,1A1.57,1.57,0,0,1,47.41,59.83Zm-13.09,0a1.41,1.41,0,0,1-1.08-.43,1.5,1.5,0,0,1-.39-1,2,2,0,0,1,.48-1.23l5.82-7.3L41,52.43l-5.45,6.85A1.64,1.64,0,0,1,34.32,59.83ZM42.78,51l-2.36-2,5.51-7.33a1.42,1.42,0,0,1,.58-.46,1.92,1.92,0,0,1,.69-.12,1.37,1.37,0,0,1,1.13.46,1.66,1.66,0,0,1,.36,1.12,2.12,2.12,0,0,1-.5,1.26Z" transform="translate(0 -32.75)"/><path class="cls-2" d="M65.08,59.83a1.79,1.79,0,0,1-1.27-.43,1.7,1.7,0,0,1-.44-1.29V42.8a1.68,1.68,0,0,1,.44-1.26,1.7,1.7,0,0,1,3,1.26V58.11a1.73,1.73,0,0,1-.43,1.27A1.68,1.68,0,0,1,65.08,59.83Zm0-11.72a6.79,6.79,0,0,1,1-3.68,7.44,7.44,0,0,1,2.72-2.59,7.68,7.68,0,0,1,3.77-1,5.65,5.65,0,0,1,3.06.66,1.41,1.41,0,0,1,.77,1.6,1.32,1.32,0,0,1-.39.73,1.46,1.46,0,0,1-.67.33,2.11,2.11,0,0,1-.82,0,9.75,9.75,0,0,0-3.94-.07,5.42,5.42,0,0,0-2.76,1.41,3.56,3.56,0,0,0-1,2.6Z" transform="translate(0 -32.75)"/><path class="cls-2" d="M86.45,60A8.17,8.17,0,0,1,82,58.71a8.85,8.85,0,0,1-3.14-3.39,10.12,10.12,0,0,1-1.15-4.84,9.57,9.57,0,0,1,1.25-4.87,9.46,9.46,0,0,1,16.38,0,9.57,9.57,0,0,1,1.25,4.87H95.22a10,10,0,0,1-1.15,4.84,8.82,8.82,0,0,1-3.13,3.39A8.18,8.18,0,0,1,86.45,60Zm.69-3.08a5.86,5.86,0,0,0,5.27-3.13,6.7,6.7,0,0,0,.79-3.27,6.78,6.78,0,0,0-.79-3.31A6,6,0,0,0,84,44.88a6,6,0,0,0-2.19,2.29A6.68,6.68,0,0,0,81,50.48a6.61,6.61,0,0,0,.81,3.27A6,6,0,0,0,84,56,5.86,5.86,0,0,0,87.14,56.88Zm7.67,3a1.67,1.67,0,0,1-1.25-.5,1.69,1.69,0,0,1-.5-1.25V52.87l.65-3.63,2.85,1.24v7.63a1.69,1.69,0,0,1-.5,1.25A1.67,1.67,0,0,1,94.81,59.86Z" transform="translate(0 -32.75)"/><path class="cls-2" d="M103.51,59.86a1.67,1.67,0,0,1-1.25-.5,1.69,1.69,0,0,1-.5-1.25V42.84a1.69,1.69,0,0,1,.5-1.27,1.74,1.74,0,0,1,3,1.27V58.11a1.71,1.71,0,0,1-.48,1.25A1.65,1.65,0,0,1,103.51,59.86Zm14.08,0a1.67,1.67,0,0,1-1.25-.5,1.69,1.69,0,0,1-.5-1.25V49.69a6.28,6.28,0,0,0-.72-3.19,4.53,4.53,0,0,0-1.93-1.83,6.22,6.22,0,0,0-2.79-.6,5.88,5.88,0,0,0-2.61.58,5,5,0,0,0-1.85,1.56,3.85,3.85,0,0,0-.68,2.24H103.1a7.26,7.26,0,0,1,1-3.85A7.63,7.63,0,0,1,107,41.91a8.38,8.38,0,0,1,4.08-1,8.76,8.76,0,0,1,4.23,1,7.25,7.25,0,0,1,3,3,9.79,9.79,0,0,1,1.08,4.8v8.42a1.69,1.69,0,0,1-.5,1.25A1.67,1.67,0,0,1,117.59,59.86Z" transform="translate(0 -32.75)"/><path class="cls-2" d="M157.05,60A10.35,10.35,0,0,1,152,58.75a8.94,8.94,0,0,1-3.46-3.36,9.59,9.59,0,0,1-1.25-4.91,10,10,0,0,1,1.19-4.95,8.52,8.52,0,0,1,3.27-3.36A9.35,9.35,0,0,1,156.53,41a8.57,8.57,0,0,1,4.59,1.19,7.63,7.63,0,0,1,2.93,3.25,10.81,10.81,0,0,1,1,4.78,1.47,1.47,0,0,1-.44,1.08,1.6,1.6,0,0,1-1.13.43H149.68V48.93h13.7l-1.4,1a7.17,7.17,0,0,0-.69-3.06,5,5,0,0,0-4.76-2.93,6.26,6.26,0,0,0-3.34.86,5.53,5.53,0,0,0-2.1,2.34,7.69,7.69,0,0,0-.72,3.38,6.55,6.55,0,0,0,.85,3.35,6.24,6.24,0,0,0,2.37,2.33,6.88,6.88,0,0,0,3.46.86,6.33,6.33,0,0,0,2.17-.4,6.85,6.85,0,0,0,1.8-.9,1.93,1.93,0,0,1,1.11-.4,1.53,1.53,0,0,1,1.05.36,1.66,1.66,0,0,1,.62,1.13,1.23,1.23,0,0,1-.55,1.06,9.43,9.43,0,0,1-2.9,1.51A10.26,10.26,0,0,1,157.05,60Z" transform="translate(0 -32.75)"/><path class="cls-2" d="M170.48,62.69A1.64,1.64,0,0,1,169,62a1.75,1.75,0,0,1-.23-1.68l8.48-26.45a1.66,1.66,0,0,1,.6-.8,1.79,1.79,0,0,1,.94-.34,1.67,1.67,0,0,1,1.47.64,1.75,1.75,0,0,1,.27,1.71L172,61.55a1.38,1.38,0,0,1-.61.83A2.1,2.1,0,0,1,170.48,62.69Z" transform="translate(0 -32.75)"/><path class="cls-1" d="M186.44,57.05a1.58,1.58,0,0,1-1.17.23,1.85,1.85,0,0,1-1-.59,1.6,1.6,0,0,1-.43-1.14,1.7,1.7,0,0,1,.85-1.51l11.55-6.92v1.47l-11.55-6.85a1.67,1.67,0,0,1-.85-1.54,1.55,1.55,0,0,1,.85-1.46,1.84,1.84,0,0,1,1.79,0l12.64,7.61a1.86,1.86,0,0,1,.92,1.54,1.79,1.79,0,0,1-.92,1.57Z" transform="translate(0 -32.75)"/><path class="cls-2" d="M141.16,61.3a1.66,1.66,0,0,0-1.28-.27,1.73,1.73,0,0,0-1.08.68,4.4,4.4,0,0,1-.35.39,5.28,5.28,0,0,1-1.5,1.29,6,6,0,0,1-3,.79l-.32,0-.32,0a6,6,0,0,1-3-.79,5.42,5.42,0,0,1-1.5-1.29,4.4,4.4,0,0,1-.35-.39,1.73,1.73,0,0,0-1.08-.68,1.66,1.66,0,0,0-1.28.27,1.51,1.51,0,0,0-.67,1,1.4,1.4,0,0,0,.11.83c.15.23.3.46.47.68l.09.1.08.09a9.53,9.53,0,0,0,3.17,2.31,10.25,10.25,0,0,0,8.62,0,9.43,9.43,0,0,0,3.29-2.45c.18-.22.35-.46.51-.7a1.29,1.29,0,0,0,.12-.86A1.51,1.51,0,0,0,141.16,61.3Z" transform="translate(0 -32.75)"/><path class="cls-2" d="M132.56,60a8.18,8.18,0,0,1-4.49-1.25,8.82,8.82,0,0,1-3.13-3.39,10,10,0,0,1-1.15-4.85A9.56,9.56,0,0,1,125,45.63a9.24,9.24,0,0,1,3.39-3.41,9.42,9.42,0,0,1,14.23,8.27h-1.33a10.16,10.16,0,0,1-1.15,4.85A8.85,8.85,0,0,1,137,58.73,8.17,8.17,0,0,1,132.56,60Zm.68-3.08a5.83,5.83,0,0,0,3.12-.84,6,6,0,0,0,2.16-2.3,7.22,7.22,0,0,0,0-6.57,6.05,6.05,0,0,0-2.16-2.3,6.18,6.18,0,0,0-6.22,0,6.13,6.13,0,0,0-2.19,2.3,7.14,7.14,0,0,0,0,6.57,6.06,6.06,0,0,0,2.19,2.3A5.89,5.89,0,0,0,133.24,56.9Zm7.68,3a1.69,1.69,0,0,1-1.25-.5,1.67,1.67,0,0,1-.5-1.25V52.89l.65-3.63,2.84,1.23v7.64a1.7,1.7,0,0,1-.49,1.25A1.72,1.72,0,0,1,140.92,59.88Z" transform="translate(0 -32.75)"/></svg>